# xmcd
#
# Track frame offsets: 
#        150
#        19647
#        35884
#        48403
#        66800
#        81712
#        103575
#        121300
#        137942
#        171967
#
# Disc length: 2546 seconds
#
# Revision: 0
# Processed by: cddbd v1.5.1PL0 Copyright (c) Steve Scherf et al.
# Submitted via: ExactAudioCopy v0.95a5
#
DISCID=9009f00a
DTITLE=Joy Division - Shadowplay
DYEAR=1986
DGENRE=Classic Rock
TTITLE0=Dead Souls (Live In London 02.08.79)
TTITLE1=Disorder (Live In London 02.08.79)
TTITLE2=Wilderness (Live In London 02.08.79)
TTITLE3=Autosuggestion (Live In London 02.08.79)
TTITLE4=Transmission (Live In London 02.08.79)
TTITLE5=Day Of The Lords (Live In London 02.08.79)
TTITLE6=She's Lost Control (Live In London 02.08.79)
TTITLE7=Shadowplay (Live In London 02.08.79)
TTITLE8=Atrocity Exhibition (Live In London 02.08.79)
TTITLE9=Insight (Live In London 02.08.79)
EXTD=
EXTT0=
EXTT1=
EXTT2=
EXTT3=
EXTT4=
EXTT5=
EXTT6=
EXTT7=
EXTT8=
EXTT9=
PLAYORDER=
